<!-- <?xml version="1.0" encoding="UTF-8" standalone="no"?>
<svg xmlns:dc="http://purl.org/dc/elements/1.1/" xmlns:cc="http://creativecommons.org/ns#" xmlns:rdf="http://www.w3.org/1999/02/22-rdf-syntax-ns#" xmlns:svg="http://www.w3.org/2000/svg" xmlns="http://www.w3.org/2000/svg" xmlns:sodipodi="http://sodipodi.sourceforge.net/DTD/sodipodi-0.dtd" viewBox="0 0 285 322.95999" height="322.95999" width="285" xml:space="preserve" id="svg2" version="1.1" sodipodi:docname="jb-mask.svg">
	<g style="display:inline">
		<path fill="#1f1f1f" clip-path="none" d="M101.01987911078781,-0.0725618294963879 L100.85537934746189,87.59735579688673 C100.68102323479121,181.03145464297538 100.71292852839741,179.62753148305774 98.41525808066629,197.10495452709952 C93.1247848621513,237.34736606023932 78.89807607324192,269.57474069760997 56.664974497180005,291.67613517619736 C45.802097364351575,302.4746733091883 34.13244143981983,310.5153687990297 20.96602316491507,316.2731412659786 C15.30856386889119,318.7471852195524 4.888886959678642,322.1170139077219 1.1924586606412215,322.6691399267115 L-0.7639433615349844,322.96094000670126 L285,322.96094000670126 L285,-0.0725618294963879 L101.01987911078781,-0.0725618294963879 zM116.55947168066233,-0.07060346412551854 L205.8156535461412,-0.07060346412551854 C238.85732507362684,-0.07060346412551854 265.7414854980235,26.812223645872255 265.7414854980235,59.85522372502439 C265.7414854980235,81.21098186630226 254.52584230258006,100.59466999959567 236.56582913243332,111.30330779868557 C264.623506763958,121.61353049989933 283.5703981924,148.28368882453583 283.5703981924,178.83736911265052 C283.5703981924,218.53843344220823 251.27148230113863,250.83648702823695 211.56931502302763,250.83648702823695 L116.55947168066233,250.83648702823695 L116.55947168066233,-0.07060346412551854 z" id="rect3858"/>
	</g>
</svg> -->


<svg xmlns:dc="http://purl.org/dc/elements/1.1/" xmlns:cc="http://creativecommons.org/ns#" xmlns:rdf="http://www.w3.org/1999/02/22-rdf-syntax-ns#" xmlns:svg="http://www.w3.org/2000/svg" xmlns="http://www.w3.org/2000/svg" xmlns:sodipodi="http://sodipodi.sourceforge.net/DTD/sodipodi-0.dtd" height="321.94520683954295" width="284.6849327953564" xml:space="preserve" version="1.1" sodipodi:docname="jb-mask.svg"><rect id="backgroundrect" width="100%" height="100%" x="0" y="0" fill="none" stroke="none" class="" style=""/>
	
<g class="currentLayer" style=""><title>Layer 1</title><g style="display:inline" id="svg_1" class="">
		<path fill="#1f1f1f" clip-path="none" d="M101.01987911078781,-0.0725618294963879 L100.85537934746189,87.59735579688673 C100.68102323479121,181.03145464297538 100.71292852839741,179.62753148305774 98.41525808066629,197.10495452709952 C93.1247848621513,237.34736606023932 78.89807607324192,269.57474069760997 56.664974497180005,291.67613517619736 C45.802097364351575,302.4746733091883 34.13244143981983,310.5153687990297 20.96602316491507,316.2731412659786 C15.30856386889119,318.7471852195524 4.888886959678642,322.1170139077219 1.1924586606412215,322.6691399267115 L-0.7639433615349844,322.96094000670126 L285,322.96094000670126 L285,-0.0725618294963879 L101.01987911078781,-0.0725618294963879 zM116.55947168066233,-0.07060346412551854 L205.8156535461412,-0.07060346412551854 C238.85732507362684,-0.07060346412551854 265.7414854980235,26.812223645872255 265.7414854980235,59.85522372502439 C265.7414854980235,81.21098186630226 254.52584230258006,100.59466999959567 236.56582913243332,111.30330779868557 C264.623506763958,121.61353049989933 283.5703981924,148.28368882453583 283.5703981924,178.83736911265052 C283.5703981924,218.53843344220823 251.27148230113863,250.83648702823695 211.56931502302763,250.83648702823695 L116.55947168066233,250.83648702823695 L116.55947168066233,-0.07060346412551854 z" id="rect3858"/>
	</g></g></svg>