<?xml version="1.0" encoding="UTF-8" standalone="no"?>
<svg
   xmlns:dc="http://purl.org/dc/elements/1.1/"
   xmlns:cc="http://creativecommons.org/ns#"
   xmlns:rdf="http://www.w3.org/1999/02/22-rdf-syntax-ns#"
   xmlns:svg="http://www.w3.org/2000/svg"
   xmlns="http://www.w3.org/2000/svg"
   viewBox="0 0 393.49332 376"
   height="376"
   width="393.49332"
   xml:space="preserve"
   id="svg2"
   version="1.1"><metadata
     id="metadata8"><rdf:RDF><cc:Work
         rdf:about=""><dc:format>image/svg+xml</dc:format><dc:type
           rdf:resource="http://purl.org/dc/dcmitype/StillImage" /></cc:Work></rdf:RDF></metadata><defs
     id="defs6" /><g
     transform="matrix(1.3333333,0,0,-1.3333333,0,376)"
     id="g10"><g
       transform="scale(0.1)"
       id="g12"><path
         id="path14"
         style="fill:#ff4c00;fill-opacity:1;fill-rule:nonzero;stroke:none"
         d="M 2951.23,1091.04 V 0 h -632.6 v 1017.96 c 0,255.71 -91.46,430.3 -320.47,430.3 -174.73,0 -278.68,-117.59 -324.48,-231.44 -16.65,-40.64 -20.96,-97.2 -20.96,-154.2 V 0 h -632.75 c 0,0 8.47,1724.08 0,1902.83 h 632.75 v -269.78 c -1.43,-2.01 -3.02,-4.17 -4.17,-6.18 h 4.17 v 6.18 c 83.99,129.5 234.17,314.43 570.14,314.43 416.23,0 728.37,-271.93 728.37,-856.44 M 358.082,2820 C 141.57,2820 0,2678 0,2491.35 0,2308.72 137.547,2162.42 349.609,2162.42 h 4.309 c 220.68,0 357.793,146.16 357.793,328.93 C 707.691,2678 574.598,2820 358.082,2820 M 37.6172,0 H 670.074 V 1902.83 H 37.6172 V 0" /></g></g></svg>